<svg width="91" height="16" viewBox="0 0 91 16" fill="none" xmlns="http://www.w3.org/2000/svg">
<g clip-path="url(#clip0_174_1461)">
<path d="M0.854492 0.655807H6.83983V9.41911H19.5242V14.8929H0.854492V0.655807Z" fill="white"/>
<path d="M44.3428 0.655807H50.3281V9.41911H63.0124V14.8929H44.3428V0.655807Z" fill="white"/>
<path d="M26.7734 0.655807H20.8525V8.40067C20.8525 14.0926 25.8033 15.7045 31.6103 15.7045C37.4172 15.7045 42.368 14.0942 42.368 8.40067V0.655807H36.4471V7.10477C36.4471 9.09833 34.9283 10.067 31.6238 10.067C28.3192 10.067 26.787 9.09833 26.787 7.10477V0.655807H26.7734Z" fill="white"/>
<path d="M82.5899 14.9074H90.1449L81.7215 0.655807H72.2142L63.791 14.9074H70.9623L72.1873 12.7646H81.3635L82.5883 14.9074H82.5899ZM74.6522 8.05424L76.7827 4.28686L78.9133 8.05424H74.6507H74.6522Z" fill="white"/>
</g>
<defs>
<clipPath id="clip0_174_1461">
<rect width="90.0817" height="15.2147" fill="white" transform="translate(0.794922 0.655807)"/>
</clipPath>
</defs>
</svg>
